<mxfile modified="2020-12-01T00:47:15.205Z" host="app.diagrams.net" agent="5.0 (Windows NT 10.0; Win64; x64) AppleWebKit/537.36 (KHTML, like Gecko) Chrome/86.0.4240.198 Safari/537.36" etag="BylLHCPp_GfwUmc7TBXl" version="13.10.4" type="github">
  <diagram id="Ht1M8jgEwFfnCIfOTk4-" name="Page-1">
    <mxGraphModel dx="1450" dy="1724" grid="1" gridSize="10" guides="1" tooltips="1" connect="1" arrows="1" fold="1" page="1" pageScale="1" pageWidth="1169" pageHeight="827" math="0" shadow="0">
      <root>
        <mxCell id="0" />
        <mxCell id="1" parent="0" />
        <mxCell id="UEzPUAAOIrF-is8g5C7q-74" value="AWS Cloud" style="points=[[0,0],[0.25,0],[0.5,0],[0.75,0],[1,0],[1,0.25],[1,0.5],[1,0.75],[1,1],[0.75,1],[0.5,1],[0.25,1],[0,1],[0,0.75],[0,0.5],[0,0.25]];outlineConnect=0;gradientColor=none;html=1;whiteSpace=wrap;fontSize=12;fontStyle=0;shape=mxgraph.aws4.group;grIcon=mxgraph.aws4.group_aws_cloud_alt;strokeColor=#232F3E;fillColor=none;verticalAlign=top;align=left;spacingLeft=30;fontColor=#232F3E;dashed=0;labelBackgroundColor=#ffffff;" parent="1" vertex="1">
          <mxGeometry x="170" y="80" width="780" height="770" as="geometry" />
        </mxCell>
        <mxCell id="NSj8rhaaZaE4U6z6F0w1-3" value="Public subnet" style="points=[[0,0],[0.25,0],[0.5,0],[0.75,0],[1,0],[1,0.25],[1,0.5],[1,0.75],[1,1],[0.75,1],[0.5,1],[0.25,1],[0,1],[0,0.75],[0,0.5],[0,0.25]];outlineConnect=0;gradientColor=none;html=1;whiteSpace=wrap;fontSize=12;fontStyle=0;shape=mxgraph.aws4.group;grIcon=mxgraph.aws4.group_security_group;grStroke=0;strokeColor=#248814;fillColor=#E9F3E6;verticalAlign=top;align=left;spacingLeft=30;fontColor=#248814;dashed=0;" vertex="1" parent="1">
          <mxGeometry x="600" y="300" width="210" height="190" as="geometry" />
        </mxCell>
        <mxCell id="NSj8rhaaZaE4U6z6F0w1-4" value="Private subnet" style="points=[[0,0],[0.25,0],[0.5,0],[0.75,0],[1,0],[1,0.25],[1,0.5],[1,0.75],[1,1],[0.75,1],[0.5,1],[0.25,1],[0,1],[0,0.75],[0,0.5],[0,0.25]];outlineConnect=0;gradientColor=none;html=1;whiteSpace=wrap;fontSize=12;fontStyle=0;shape=mxgraph.aws4.group;grIcon=mxgraph.aws4.group_security_group;grStroke=0;strokeColor=#147EBA;fillColor=#E6F2F8;verticalAlign=top;align=left;spacingLeft=30;fontColor=#147EBA;dashed=0;" vertex="1" parent="1">
          <mxGeometry x="690" y="570" width="170" height="160" as="geometry" />
        </mxCell>
        <mxCell id="NSj8rhaaZaE4U6z6F0w1-5" value="users" style="outlineConnect=0;gradientColor=none;fontColor=#545B64;strokeColor=none;fillColor=#879196;dashed=0;verticalLabelPosition=bottom;verticalAlign=top;align=center;html=1;fontSize=12;fontStyle=0;aspect=fixed;shape=mxgraph.aws4.illustration_users;pointerEvents=1" vertex="1" parent="1">
          <mxGeometry x="460" y="-200" width="100" height="100" as="geometry" />
        </mxCell>
        <mxCell id="NSj8rhaaZaE4U6z6F0w1-6" value="" style="outlineConnect=0;fontColor=#232F3E;gradientColor=#F78E04;gradientDirection=north;fillColor=#D05C17;strokeColor=#ffffff;dashed=0;verticalLabelPosition=bottom;verticalAlign=top;align=center;html=1;fontSize=12;fontStyle=0;aspect=fixed;shape=mxgraph.aws4.resourceIcon;resIcon=mxgraph.aws4.ec2;" vertex="1" parent="1">
          <mxGeometry x="660" y="356" width="78" height="78" as="geometry" />
        </mxCell>
        <mxCell id="NSj8rhaaZaE4U6z6F0w1-8" value="" style="outlineConnect=0;fontColor=#232F3E;gradientColor=none;fillColor=#3334B9;strokeColor=none;dashed=0;verticalLabelPosition=bottom;verticalAlign=top;align=center;html=1;fontSize=12;fontStyle=0;aspect=fixed;pointerEvents=1;shape=mxgraph.aws4.rds_mysql_instance;" vertex="1" parent="1">
          <mxGeometry x="736" y="611" width="78" height="78" as="geometry" />
        </mxCell>
        <mxCell id="NSj8rhaaZaE4U6z6F0w1-9" value="" style="outlineConnect=0;fontColor=#232F3E;gradientColor=#60A337;gradientDirection=north;fillColor=#277116;strokeColor=#ffffff;dashed=0;verticalLabelPosition=bottom;verticalAlign=top;align=center;html=1;fontSize=12;fontStyle=0;aspect=fixed;shape=mxgraph.aws4.resourceIcon;resIcon=mxgraph.aws4.s3;" vertex="1" parent="1">
          <mxGeometry x="330" y="380" width="78" height="78" as="geometry" />
        </mxCell>
        <mxCell id="NSj8rhaaZaE4U6z6F0w1-11" value="" style="outlineConnect=0;dashed=0;verticalLabelPosition=bottom;verticalAlign=top;align=center;html=1;shape=mxgraph.aws3.application_load_balancer;fillColor=#F58536;gradientColor=none;" vertex="1" parent="1">
          <mxGeometry x="659.25" y="180" width="69" height="72" as="geometry" />
        </mxCell>
        <mxCell id="NSj8rhaaZaE4U6z6F0w1-13" value="" style="outlineConnect=0;dashed=0;verticalLabelPosition=bottom;verticalAlign=top;align=center;html=1;shape=mxgraph.aws3.route_53;fillColor=#F58536;gradientColor=none;" vertex="1" parent="1">
          <mxGeometry x="658.5" y="30" width="70.5" height="85.5" as="geometry" />
        </mxCell>
        <mxCell id="NSj8rhaaZaE4U6z6F0w1-20" value="" style="edgeStyle=orthogonalEdgeStyle;html=1;endArrow=none;elbow=vertical;startArrow=open;startFill=0;strokeColor=#545B64;rounded=0;" edge="1" parent="1">
          <mxGeometry width="100" relative="1" as="geometry">
            <mxPoint x="650" y="60" as="sourcePoint" />
            <mxPoint x="510" y="-90" as="targetPoint" />
          </mxGeometry>
        </mxCell>
        <mxCell id="NSj8rhaaZaE4U6z6F0w1-29" value="" style="endArrow=classic;html=1;" edge="1" parent="1" source="NSj8rhaaZaE4U6z6F0w1-3">
          <mxGeometry relative="1" as="geometry">
            <mxPoint x="540" y="434" as="sourcePoint" />
            <mxPoint x="430" y="434" as="targetPoint" />
          </mxGeometry>
        </mxCell>
        <mxCell id="NSj8rhaaZaE4U6z6F0w1-30" value="画像をアップロード" style="edgeLabel;resizable=0;html=1;align=center;verticalAlign=middle;fontStyle=1" connectable="0" vertex="1" parent="NSj8rhaaZaE4U6z6F0w1-29">
          <mxGeometry relative="1" as="geometry" />
        </mxCell>
        <mxCell id="NSj8rhaaZaE4U6z6F0w1-38" value="Route53" style="text;html=1;strokeColor=none;fillColor=none;align=center;verticalAlign=middle;whiteSpace=wrap;rounded=0;fontFamily=Helvetica;fontStyle=1" vertex="1" parent="1">
          <mxGeometry x="673.75" y="115.5" width="40" height="20" as="geometry" />
        </mxCell>
        <mxCell id="NSj8rhaaZaE4U6z6F0w1-39" value="ALB" style="text;html=1;strokeColor=none;fillColor=none;align=center;verticalAlign=middle;whiteSpace=wrap;rounded=0;fontFamily=Helvetica;fontStyle=1" vertex="1" parent="1">
          <mxGeometry x="673.75" y="260" width="40" height="20" as="geometry" />
        </mxCell>
        <mxCell id="NSj8rhaaZaE4U6z6F0w1-40" value="EC2" style="text;html=1;strokeColor=none;fillColor=none;align=center;verticalAlign=middle;whiteSpace=wrap;rounded=0;fontFamily=Helvetica;fontStyle=1" vertex="1" parent="1">
          <mxGeometry x="679" y="452" width="40" height="20" as="geometry" />
        </mxCell>
        <mxCell id="NSj8rhaaZaE4U6z6F0w1-41" value="RDS" style="text;html=1;strokeColor=none;fillColor=none;align=center;verticalAlign=middle;whiteSpace=wrap;rounded=0;fontFamily=Helvetica;fontStyle=1" vertex="1" parent="1">
          <mxGeometry x="705" y="710" width="40" height="20" as="geometry" />
        </mxCell>
        <mxCell id="NSj8rhaaZaE4U6z6F0w1-42" value="" style="rounded=1;arcSize=10;dashed=0;fillColor=none;gradientColor=none;strokeWidth=2;fontFamily=Helvetica;" vertex="1" parent="1">
          <mxGeometry x="570" y="160" width="350" height="630" as="geometry" />
        </mxCell>
        <mxCell id="NSj8rhaaZaE4U6z6F0w1-43" value="" style="dashed=0;html=1;shape=mxgraph.aws3.virtual_private_cloud;fillColor=#F58536;gradientColor=none;dashed=0;fontFamily=Helvetica;" vertex="1" parent="1">
          <mxGeometry x="570" y="144" width="52" height="36" as="geometry" />
        </mxCell>
        <mxCell id="NSj8rhaaZaE4U6z6F0w1-44" value="" style="outlineConnect=0;dashed=0;verticalLabelPosition=bottom;verticalAlign=top;align=center;html=1;shape=mxgraph.aws3.certificate_manager_2;fillColor=#759C3E;gradientColor=none;fontFamily=Helvetica;" vertex="1" parent="1">
          <mxGeometry x="827" y="197" width="73.5" height="63" as="geometry" />
        </mxCell>
        <mxCell id="NSj8rhaaZaE4U6z6F0w1-45" value="ACM" style="text;html=1;strokeColor=none;fillColor=none;align=center;verticalAlign=middle;whiteSpace=wrap;rounded=0;fontFamily=Helvetica;fontStyle=1" vertex="1" parent="1">
          <mxGeometry x="843.75" y="270" width="40" height="20" as="geometry" />
        </mxCell>
        <mxCell id="NSj8rhaaZaE4U6z6F0w1-46" value="S3" style="text;html=1;strokeColor=none;fillColor=none;align=center;verticalAlign=middle;whiteSpace=wrap;rounded=0;fontFamily=Helvetica;fontStyle=1" vertex="1" parent="1">
          <mxGeometry x="349" y="475" width="40" height="20" as="geometry" />
        </mxCell>
        <mxCell id="NSj8rhaaZaE4U6z6F0w1-47" value="" style="endArrow=classic;html=1;fontFamily=Helvetica;exitX=-0.308;exitY=1.117;exitDx=0;exitDy=0;exitPerimeter=0;" edge="1" parent="1" source="NSj8rhaaZaE4U6z6F0w1-40">
          <mxGeometry relative="1" as="geometry">
            <mxPoint x="660" y="560" as="sourcePoint" />
            <mxPoint x="760" y="560" as="targetPoint" />
            <Array as="points">
              <mxPoint x="670" y="520" />
              <mxPoint x="700" y="530" />
            </Array>
          </mxGeometry>
        </mxCell>
        <mxCell id="NSj8rhaaZaE4U6z6F0w1-48" value="DBマイグレーション" style="edgeLabel;resizable=0;html=1;align=center;verticalAlign=middle;fontStyle=1" connectable="0" vertex="1" parent="NSj8rhaaZaE4U6z6F0w1-47">
          <mxGeometry relative="1" as="geometry" />
        </mxCell>
        <mxCell id="NSj8rhaaZaE4U6z6F0w1-49" value="" style="outlineConnect=0;dashed=0;verticalLabelPosition=bottom;verticalAlign=top;align=center;html=1;shape=mxgraph.aws3.internet_gateway;fillColor=#F58534;gradientColor=none;fontFamily=Helvetica;" vertex="1" parent="1">
          <mxGeometry x="800" y="115.5" width="69" height="72" as="geometry" />
        </mxCell>
        <mxCell id="NSj8rhaaZaE4U6z6F0w1-52" value="" style="endArrow=classic;html=1;fontFamily=Helvetica;" edge="1" parent="1">
          <mxGeometry relative="1" as="geometry">
            <mxPoint x="710" y="120" as="sourcePoint" />
            <mxPoint x="810" y="120" as="targetPoint" />
          </mxGeometry>
        </mxCell>
        <mxCell id="NSj8rhaaZaE4U6z6F0w1-56" value="" style="endArrow=classic;html=1;fontFamily=Helvetica;" edge="1" parent="1">
          <mxGeometry relative="1" as="geometry">
            <mxPoint x="805" y="180" as="sourcePoint" />
            <mxPoint x="705" y="180" as="targetPoint" />
          </mxGeometry>
        </mxCell>
        <mxCell id="NSj8rhaaZaE4U6z6F0w1-57" value="Internet gateway" style="edgeLabel;resizable=0;html=1;align=center;verticalAlign=middle;fontStyle=1" connectable="0" vertex="1" parent="NSj8rhaaZaE4U6z6F0w1-56">
          <mxGeometry relative="1" as="geometry" />
        </mxCell>
      </root>
    </mxGraphModel>
  </diagram>
</mxfile>
